<?xml version="1.0" encoding="utf-8"?>
<!-- Generator: Adobe Illustrator 27.4.0, SVG Export Plug-In . SVG Version: 6.00 Build 0)  -->
<svg version="1.1" id="Layer_1" xmlns="http://www.w3.org/2000/svg" xmlns:xlink="http://www.w3.org/1999/xlink" x="0px" y="0px"
	 viewBox="0 0 300 300" style="enable-background:new 0 0 300 300;" xml:space="preserve">
<style type="text/css">
	.st0{fill:#FFFFFF;}
</style>
<g>
	<g>
		<g>
			<path class="st0" d="M116.02,121.9l32.76,62.14v-65.89c0-3-1.21-5.71-3.63-8.13c-2.42-2.42-4.59-3.83-6.5-4.25h23.76
				c-0.92,0.17-1.96,0.6-3.13,1.31c-1.17,0.71-2.29,1.63-3.38,2.75c-1.08,1.13-1.98,2.44-2.69,3.94c-0.71,1.5-1.06,2.96-1.06,4.38
				v63.89c0,0.42,0,0.96,0,1.63c0,2.92,0.15,4.84,0.44,5.75c0.29,0.92,1.27,2.21,2.94,3.88h-12.5h-15.25
				c2.5-4.08,3.04-7.54,1.63-10.38L95.39,115.4v65.52c0,2.84,1.19,5.54,3.56,8.13c2.38,2.59,4.6,4,6.69,4.25H81.89
				c1.92-0.42,4.1-1.83,6.56-4.25c2.46-2.42,3.69-5.13,3.69-8.13v-65.27c0-1.92-0.02-3.1-0.06-3.56c-0.04-0.46-0.17-1.17-0.38-2.13
				c-0.21-0.96-0.52-1.69-0.94-2.19c-0.42-0.5-1.08-1.17-2-2h30.38c-2.42,1-4.11,2-5.06,3c-0.96,1-1.33,2.56-1.13,4.69
				C113.16,115.59,114.18,118.4,116.02,121.9z"/>
			<path class="st0" d="M264.58,134.53c4.67-0.08,8.84,0.5,12.5,1.75c3.67,1.25,6.75,3.11,9.25,5.56c2.5,2.46,4.42,5.59,5.75,9.38
				c1.33,3.79,2,8.15,2,13.07c0,9.17-2.5,16.3-7.5,21.38c-5,5.09-12.13,7.63-21.38,7.63c-9.34,0-16.71-2.54-22.13-7.63
				c-5.42-5.08-8.13-12.21-8.13-21.38c0-9.75,2.58-17.17,7.75-22.26C247.87,136.95,255.16,134.45,264.58,134.53z M266.83,190.92
				c1.67-0.08,3.13-0.75,4.38-2c1.25-1.25,2.23-2.94,2.94-5.06c0.71-2.13,1.25-4.52,1.63-7.19c0.38-2.67,0.52-5.48,0.44-8.44
				c-0.08-2.96-0.31-5.92-0.69-8.88c-0.38-2.96-0.96-5.79-1.75-8.5c-0.79-2.71-1.71-5.1-2.75-7.19c-1.04-2.08-2.29-3.77-3.75-5.06
				c-1.46-1.29-3.02-1.98-4.69-2.06c-2.75,0.17-4.96,2.13-6.63,5.88c-1.67,3.75-2.52,8.25-2.56,13.5
				c-0.04,5.25,0.35,10.5,1.19,15.75c0.83,5.25,2.38,9.73,4.63,13.44C261.45,188.82,264,190.75,266.83,190.92z"/>
			<g>
				<path class="st0" d="M190.49,188.67c-0.88-1.58-1.5-3.33-1.88-5.25c-0.38-1.92-0.61-3.54-0.69-4.88
					c-0.08-1.33-0.13-3.25-0.13-5.75c0.08-0.83,0.13-1.46,0.13-1.88v-36.39c-2.25,0-5.81,1.11-10.69,3.31
					c-4.88,2.21-8.27,3.31-10.19,3.31c2,2,3,5.92,3,11.75v18.01c0,0.42,0,1,0,1.75c0,2.58-0.02,4.52-0.06,5.81
					c-0.04,1.29-0.25,2.92-0.63,4.88c-0.38,1.96-1.02,3.73-1.94,5.31c-0.92,1.58-2.13,3.13-3.63,4.63h30.38
					C192.59,191.79,191.36,190.25,190.49,188.67z"/>
				<path class="st0" d="M206.52,172.66c0,2.58-0.02,4.52-0.06,5.81c-0.04,1.29-0.25,2.92-0.63,4.88c-0.38,1.96-1.02,3.73-1.94,5.31
					c-0.92,1.58-2.13,3.13-3.63,4.63h30.38c-1.58-1.5-2.81-3.04-3.69-4.63c-0.88-1.58-1.5-3.33-1.88-5.25
					c-0.38-1.92-0.61-3.54-0.69-4.88c-0.08-1.33-0.08-3.25,0-5.75c0-0.83,0-1.46,0-1.88v-65.14c-2.25,0-6.09,1.21-11.5,3.63
					c-2.25,1-6.84,1.21-13.75,0.63c-6.92-0.58-12.09-0.5-15.5,0.25c-3.42,0.75-6.38,2-8.88,3.75c-2.5,1.75-3.75,4.13-3.75,7.13
					c0,2.33,0.81,4.31,2.44,5.94c1.63,1.63,3.6,2.44,5.94,2.44c2.83,0,5.08-1.02,6.75-3.06c1.67-2.04,2.17-4.52,1.5-7.44
					c-0.5-2.5,0.33-4.46,2.5-5.88c2.75-1.83,5.88-2.04,9.38-0.63c4.67,1.83,7,5.71,7,11.63v46.76
					C206.52,171.33,206.52,171.91,206.52,172.66z M179.48,127.14c-3.54,0-6.02-2.71-6.02-6.02c0-3.42,2.48-6.02,6.02-6.02
					c3.42,0,6.02,2.6,6.02,6.02C185.5,124.43,182.9,127.14,179.48,127.14z"/>
			</g>
		</g>
		<g>
			<path class="st0" d="M25.7,190.01c-0.62-1.13-1.07-2.37-1.33-3.73c-0.27-1.36-0.43-2.52-0.49-3.47
				c-0.06-0.95-0.09-2.31-0.09-4.09c0.06-0.59,0.09-1.04,0.09-1.33v-25.87c-1.6,0-4.13,0.79-7.6,2.36
				c-3.47,1.57-5.88,2.36-7.25,2.36c1.42,1.42,2.13,4.21,2.13,8.36v12.8c0,0.3,0,0.71,0,1.24c0,1.84-0.02,3.22-0.04,4.13
				c-0.03,0.92-0.18,2.08-0.44,3.47c-0.27,1.39-0.73,2.65-1.38,3.78c-0.65,1.13-1.51,2.22-2.58,3.29h21.61
				C27.2,192.23,26.32,191.13,25.7,190.01z"/>
			<path class="st0" d="M37.1,178.62c0,1.84-0.02,3.22-0.04,4.13c-0.03,0.92-0.18,2.08-0.44,3.47c-0.27,1.39-0.73,2.65-1.38,3.78
				c-0.65,1.13-1.51,2.22-2.58,3.29h21.61c-1.13-1.07-2-2.16-2.62-3.29c-0.62-1.13-1.07-2.37-1.33-3.73
				c-0.27-1.36-0.43-2.52-0.49-3.47c-0.06-0.95-0.06-2.31,0-4.09c0-0.59,0-1.04,0-1.33v-46.32c-1.6,0-4.33,0.86-8.18,2.58
				c-1.6,0.71-4.86,0.86-9.78,0.44c-4.92-0.41-8.6-0.36-11.02,0.18c-2.43,0.53-4.53,1.42-6.31,2.67c-1.78,1.24-2.67,2.93-2.67,5.07
				c0,1.66,0.58,3.07,1.73,4.22c1.16,1.16,2.56,1.73,4.22,1.73c2.01,0,3.61-0.73,4.8-2.18c1.19-1.45,1.54-3.21,1.07-5.29
				c-0.36-1.78,0.24-3.17,1.78-4.18c1.96-1.3,4.18-1.45,6.67-0.44c3.32,1.3,4.98,4.06,4.98,8.27v33.25
				C37.1,177.68,37.1,178.09,37.1,178.62z M17.87,146.25c-2.52,0-4.28-1.93-4.28-4.28c0-2.43,1.76-4.28,4.28-4.28
				c2.43,0,4.28,1.85,4.28,4.28C22.15,144.32,20.3,146.25,17.87,146.25z"/>
		</g>
	</g>
</g>
</svg>
